<svg xmlns="http://www.w3.org/2000/svg" viewBox="0 0 320 200" fill="none">
<defs>
  <filter id="softblur" x="-20%" y="-20%" width="140%" height="140%">
    <feGaussianBlur stdDeviation="2.4"/>
  </filter>
  <linearGradient id="bgGrad" x1="0" y1="0" x2="0" y2="1">
    <stop offset="0" stop-color="#1F1F26"/>
    <stop offset="1" stop-color="#0A0A0A"/>
  </linearGradient>
  <radialGradient id="appBg" cx="0.3" cy="0.25" r="0.9">
    <stop offset="0" stop-color="#1d1d23"/>
    <stop offset="1" stop-color="#050505"/>
  </radialGradient>
  
</defs>
<ellipse cx="160" cy="174" rx="100" ry="12" fill="#000" opacity="0.35" filter="url(#softblur)"/>
    <g transform="translate(160 100)">
      <rect x="-52" y="-46" width="104" height="92" rx="6" fill="#2E6BB0" stroke="#0A0A0A" stroke-width="2.2"/>
      <g stroke="#7BB1E8" stroke-width="1.2" opacity="0.7">
        <line x1="-46" y1="-32" x2="46" y2="-32"/>
        <line x1="-46" y1="-16" x2="46" y2="-16"/>
        <line x1="-46" y1="0"   x2="46" y2="0"/>
        <line x1="-46" y1="16"  x2="46" y2="16"/>
        <line x1="-46" y1="32"  x2="46" y2="32"/>
        <line x1="-32" y1="-44" x2="-32" y2="44"/>
        <line x1="-12" y1="-44" x2="-12" y2="44"/>
        <line x1="12"  y1="-44" x2="12"  y2="44"/>
        <line x1="32"  y1="-44" x2="32"  y2="44"/>
      </g>
      <text x="0" y="6" text-anchor="middle" font-family="Inter, system-ui, sans-serif" font-size="44" font-weight="900" fill="#E9F3FF" opacity="0.95">?</text>
    </g></svg>
