<svg xmlns="http://www.w3.org/2000/svg" viewBox="0 0 600 360" fill="none">
<defs>
  <filter id="softblur" x="-20%" y="-20%" width="140%" height="140%">
    <feGaussianBlur stdDeviation="2.4"/>
  </filter>
  <linearGradient id="bgGrad" x1="0" y1="0" x2="0" y2="1">
    <stop offset="0" stop-color="#1F1F26"/>
    <stop offset="1" stop-color="#0A0A0A"/>
  </linearGradient>
  <radialGradient id="appBg" cx="0.3" cy="0.25" r="0.9">
    <stop offset="0" stop-color="#1d1d23"/>
    <stop offset="1" stop-color="#050505"/>
  </radialGradient>
  
</defs>
<rect width="600" height="360" fill="url(#bgGrad)"/><g opacity="0.16"><line x1="300.0" y1="96.0" x2="549.4" y2="240.0" stroke="#FFC72C" stroke-width="0.6"/><line x1="300.0" y1="96.0" x2="50.6" y2="240.0" stroke="#FFC72C" stroke-width="0.6"/><line x1="284.4" y1="105.0" x2="533.8" y2="249.0" stroke="#FFC72C" stroke-width="0.6"/><line x1="315.6" y1="105.0" x2="66.2" y2="249.0" stroke="#FFC72C" stroke-width="0.6"/><line x1="268.8" y1="114.0" x2="518.2" y2="258.0" stroke="#FFC72C" stroke-width="0.6"/><line x1="331.2" y1="114.0" x2="81.8" y2="258.0" stroke="#FFC72C" stroke-width="0.6"/><line x1="253.2" y1="123.0" x2="502.6" y2="267.0" stroke="#FFC72C" stroke-width="0.6"/><line x1="346.8" y1="123.0" x2="97.4" y2="267.0" stroke="#FFC72C" stroke-width="0.6"/><line x1="237.6" y1="132.0" x2="487.1" y2="276.0" stroke="#FFC72C" stroke-width="0.6"/><line x1="362.4" y1="132.0" x2="112.9" y2="276.0" stroke="#FFC72C" stroke-width="0.6"/><line x1="222.1" y1="141.0" x2="471.5" y2="285.0" stroke="#FFC72C" stroke-width="0.6"/><line x1="377.9" y1="141.0" x2="128.5" y2="285.0" stroke="#FFC72C" stroke-width="0.6"/><line x1="206.5" y1="150.0" x2="455.9" y2="294.0" stroke="#FFC72C" stroke-width="0.6"/><line x1="393.5" y1="150.0" x2="144.1" y2="294.0" stroke="#FFC72C" stroke-width="0.6"/><line x1="190.9" y1="159.0" x2="440.3" y2="303.0" stroke="#FFC72C" stroke-width="0.6"/><line x1="409.1" y1="159.0" x2="159.7" y2="303.0" stroke="#FFC72C" stroke-width="0.6"/><line x1="175.3" y1="168.0" x2="424.7" y2="312.0" stroke="#FFC72C" stroke-width="0.6"/><line x1="424.7" y1="168.0" x2="175.3" y2="312.0" stroke="#FFC72C" stroke-width="0.6"/><line x1="159.7" y1="177.0" x2="409.1" y2="321.0" stroke="#FFC72C" stroke-width="0.6"/><line x1="440.3" y1="177.0" x2="190.9" y2="321.0" stroke="#FFC72C" stroke-width="0.6"/><line x1="144.1" y1="186.0" x2="393.5" y2="330.0" stroke="#FFC72C" stroke-width="0.6"/><line x1="455.9" y1="186.0" x2="206.5" y2="330.0" stroke="#FFC72C" stroke-width="0.6"/><line x1="128.5" y1="195.0" x2="377.9" y2="339.0" stroke="#FFC72C" stroke-width="0.6"/><line x1="471.5" y1="195.0" x2="222.1" y2="339.0" stroke="#FFC72C" stroke-width="0.6"/><line x1="112.9" y1="204.0" x2="362.4" y2="348.0" stroke="#FFC72C" stroke-width="0.6"/><line x1="487.1" y1="204.0" x2="237.6" y2="348.0" stroke="#FFC72C" stroke-width="0.6"/><line x1="97.4" y1="213.0" x2="346.8" y2="357.0" stroke="#FFC72C" stroke-width="0.6"/><line x1="502.6" y1="213.0" x2="253.2" y2="357.0" stroke="#FFC72C" stroke-width="0.6"/><line x1="81.8" y1="222.0" x2="331.2" y2="366.0" stroke="#FFC72C" stroke-width="0.6"/><line x1="518.2" y1="222.0" x2="268.8" y2="366.0" stroke="#FFC72C" stroke-width="0.6"/><line x1="66.2" y1="231.0" x2="315.6" y2="375.0" stroke="#FFC72C" stroke-width="0.6"/><line x1="533.8" y1="231.0" x2="284.4" y2="375.0" stroke="#FFC72C" stroke-width="0.6"/><line x1="50.6" y1="240.0" x2="300.0" y2="384.0" stroke="#FFC72C" stroke-width="0.6"/><line x1="549.4" y1="240.0" x2="300.0" y2="384.0" stroke="#FFC72C" stroke-width="0.6"/></g><polygon points="292.21,172.50 307.79,181.50 292.21,190.50 276.62,181.50" fill="#F1E9D6" stroke="#0A0A0A" stroke-width="1.4" stroke-linejoin="round"/><polygon points="276.62,181.50 292.21,190.50 292.21,208.50 276.62,199.50" fill="#C9BFA6" stroke="#0A0A0A" stroke-width="1.4" stroke-linejoin="round"/><polygon points="307.79,181.50 292.21,190.50 292.21,208.50 307.79,199.50" fill="#6B6B6B" stroke="#0A0A0A" stroke-width="1.4" stroke-linejoin="round"/><polygon points="307.79,181.50 323.38,190.50 307.79,199.50 292.21,190.50" fill="#F1E9D6" stroke="#0A0A0A" stroke-width="1.4" stroke-linejoin="round"/><polygon points="292.21,190.50 307.79,199.50 307.79,217.50 292.21,208.50" fill="#C9BFA6" stroke="#0A0A0A" stroke-width="1.4" stroke-linejoin="round"/><polygon points="323.38,190.50 307.79,199.50 307.79,217.50 323.38,208.50" fill="#6B6B6B" stroke="#0A0A0A" stroke-width="1.4" stroke-linejoin="round"/><polygon points="323.38,190.50 338.97,199.50 323.38,208.50 307.79,199.50" fill="#F1E9D6" stroke="#0A0A0A" stroke-width="1.4" stroke-linejoin="round"/><polygon points="307.79,199.50 323.38,208.50 323.38,226.50 307.79,217.50" fill="#C9BFA6" stroke="#0A0A0A" stroke-width="1.4" stroke-linejoin="round"/><polygon points="338.97,199.50 323.38,208.50 323.38,226.50 338.97,217.50" fill="#6B6B6B" stroke="#0A0A0A" stroke-width="1.4" stroke-linejoin="round"/><polygon points="338.97,199.50 354.56,208.50 338.97,217.50 323.38,208.50" fill="#F1E9D6" stroke="#0A0A0A" stroke-width="1.4" stroke-linejoin="round"/><polygon points="323.38,208.50 338.97,217.50 338.97,235.50 323.38,226.50" fill="#C9BFA6" stroke="#0A0A0A" stroke-width="1.4" stroke-linejoin="round"/><polygon points="354.56,208.50 338.97,217.50 338.97,235.50 354.56,226.50" fill="#6B6B6B" stroke="#0A0A0A" stroke-width="1.4" stroke-linejoin="round"/><polygon points="354.56,208.50 370.15,217.50 354.56,226.50 338.97,217.50" fill="#F1E9D6" stroke="#0A0A0A" stroke-width="1.4" stroke-linejoin="round"/><polygon points="338.97,217.50 354.56,226.50 354.56,244.50 338.97,235.50" fill="#C9BFA6" stroke="#0A0A0A" stroke-width="1.4" stroke-linejoin="round"/><polygon points="370.15,217.50 354.56,226.50 354.56,244.50 370.15,235.50" fill="#6B6B6B" stroke="#0A0A0A" stroke-width="1.4" stroke-linejoin="round"/><polygon points="370.15,217.50 385.74,226.50 370.15,235.50 354.56,226.50" fill="#F1E9D6" stroke="#0A0A0A" stroke-width="1.4" stroke-linejoin="round"/><polygon points="354.56,226.50 370.15,235.50 370.15,253.50 354.56,244.50" fill="#C9BFA6" stroke="#0A0A0A" stroke-width="1.4" stroke-linejoin="round"/><polygon points="385.74,226.50 370.15,235.50 370.15,253.50 385.74,244.50" fill="#6B6B6B" stroke="#0A0A0A" stroke-width="1.4" stroke-linejoin="round"/><polygon points="385.74,226.50 401.32,235.50 385.74,244.50 370.15,235.50" fill="#F1E9D6" stroke="#0A0A0A" stroke-width="1.4" stroke-linejoin="round"/><polygon points="370.15,235.50 385.74,244.50 385.74,262.50 370.15,253.50" fill="#C9BFA6" stroke="#0A0A0A" stroke-width="1.4" stroke-linejoin="round"/><polygon points="401.32,235.50 385.74,244.50 385.74,262.50 401.32,253.50" fill="#6B6B6B" stroke="#0A0A0A" stroke-width="1.4" stroke-linejoin="round"/><polygon points="300.00,159.00 315.59,168.00 300.00,177.00 284.41,168.00" fill="#F1E9D6" stroke="#0A0A0A" stroke-width="1.4" stroke-linejoin="round"/><polygon points="284.41,168.00 300.00,177.00 300.00,195.00 284.41,186.00" fill="#C9BFA6" stroke="#0A0A0A" stroke-width="1.4" stroke-linejoin="round"/><polygon points="315.59,168.00 300.00,177.00 300.00,195.00 315.59,186.00" fill="#6B6B6B" stroke="#0A0A0A" stroke-width="1.4" stroke-linejoin="round"/><polygon points="315.59,168.00 331.18,177.00 315.59,186.00 300.00,177.00" fill="#F1E9D6" stroke="#0A0A0A" stroke-width="1.4" stroke-linejoin="round"/><polygon points="300.00,177.00 315.59,186.00 315.59,204.00 300.00,195.00" fill="#C9BFA6" stroke="#0A0A0A" stroke-width="1.4" stroke-linejoin="round"/><polygon points="331.18,177.00 315.59,186.00 315.59,204.00 331.18,195.00" fill="#6B6B6B" stroke="#0A0A0A" stroke-width="1.4" stroke-linejoin="round"/><polygon points="331.18,177.00 346.77,186.00 331.18,195.00 315.59,186.00" fill="#F1E9D6" stroke="#0A0A0A" stroke-width="1.4" stroke-linejoin="round"/><polygon points="315.59,186.00 331.18,195.00 331.18,213.00 315.59,204.00" fill="#C9BFA6" stroke="#0A0A0A" stroke-width="1.4" stroke-linejoin="round"/><polygon points="346.77,186.00 331.18,195.00 331.18,213.00 346.77,204.00" fill="#6B6B6B" stroke="#0A0A0A" stroke-width="1.4" stroke-linejoin="round"/><polygon points="346.77,186.00 362.35,195.00 346.77,204.00 331.18,195.00" fill="#F1E9D6" stroke="#0A0A0A" stroke-width="1.4" stroke-linejoin="round"/><polygon points="331.18,195.00 346.77,204.00 346.77,222.00 331.18,213.00" fill="#C9BFA6" stroke="#0A0A0A" stroke-width="1.4" stroke-linejoin="round"/><polygon points="362.35,195.00 346.77,204.00 346.77,222.00 362.35,213.00" fill="#6B6B6B" stroke="#0A0A0A" stroke-width="1.4" stroke-linejoin="round"/><polygon points="362.35,195.00 377.94,204.00 362.35,213.00 346.77,204.00" fill="#F1E9D6" stroke="#0A0A0A" stroke-width="1.4" stroke-linejoin="round"/><polygon points="346.77,204.00 362.35,213.00 362.35,231.00 346.77,222.00" fill="#C9BFA6" stroke="#0A0A0A" stroke-width="1.4" stroke-linejoin="round"/><polygon points="377.94,204.00 362.35,213.00 362.35,231.00 377.94,222.00" fill="#6B6B6B" stroke="#0A0A0A" stroke-width="1.4" stroke-linejoin="round"/><polygon points="377.94,204.00 393.53,213.00 377.94,222.00 362.35,213.00" fill="#F1E9D6" stroke="#0A0A0A" stroke-width="1.4" stroke-linejoin="round"/><polygon points="362.35,213.00 377.94,222.00 377.94,240.00 362.35,231.00" fill="#C9BFA6" stroke="#0A0A0A" stroke-width="1.4" stroke-linejoin="round"/><polygon points="393.53,213.00 377.94,222.00 377.94,240.00 393.53,231.00" fill="#6B6B6B" stroke="#0A0A0A" stroke-width="1.4" stroke-linejoin="round"/><polygon points="393.53,213.00 409.12,222.00 393.53,231.00 377.94,222.00" fill="#F1E9D6" stroke="#0A0A0A" stroke-width="1.4" stroke-linejoin="round"/><polygon points="377.94,222.00 393.53,231.00 393.53,249.00 377.94,240.00" fill="#C9BFA6" stroke="#0A0A0A" stroke-width="1.4" stroke-linejoin="round"/><polygon points="409.12,222.00 393.53,231.00 393.53,249.00 409.12,240.00" fill="#6B6B6B" stroke="#0A0A0A" stroke-width="1.4" stroke-linejoin="round"/><polygon points="292.21,136.50 307.79,145.50 292.21,154.50 276.62,145.50" fill="#F1E9D6" stroke="#0A0A0A" stroke-width="1.4" stroke-linejoin="round"/><polygon points="276.62,145.50 292.21,154.50 292.21,172.50 276.62,163.50" fill="#C9BFA6" stroke="#0A0A0A" stroke-width="1.4" stroke-linejoin="round"/><polygon points="307.79,145.50 292.21,154.50 292.21,172.50 307.79,163.50" fill="#6B6B6B" stroke="#0A0A0A" stroke-width="1.4" stroke-linejoin="round"/><polygon points="307.79,145.50 323.38,154.50 307.79,163.50 292.21,154.50" fill="#F1E9D6" stroke="#0A0A0A" stroke-width="1.4" stroke-linejoin="round"/><polygon points="292.21,154.50 307.79,163.50 307.79,181.50 292.21,172.50" fill="#C9BFA6" stroke="#0A0A0A" stroke-width="1.4" stroke-linejoin="round"/><polygon points="323.38,154.50 307.79,163.50 307.79,181.50 323.38,172.50" fill="#6B6B6B" stroke="#0A0A0A" stroke-width="1.4" stroke-linejoin="round"/><polygon points="323.38,154.50 338.97,163.50 323.38,172.50 307.79,163.50" fill="#F1E9D6" stroke="#0A0A0A" stroke-width="1.4" stroke-linejoin="round"/><polygon points="307.79,163.50 323.38,172.50 323.38,190.50 307.79,181.50" fill="#C9BFA6" stroke="#0A0A0A" stroke-width="1.4" stroke-linejoin="round"/><polygon points="338.97,163.50 323.38,172.50 323.38,190.50 338.97,181.50" fill="#6B6B6B" stroke="#0A0A0A" stroke-width="1.4" stroke-linejoin="round"/><polygon points="338.97,163.50 354.56,172.50 338.97,181.50 323.38,172.50" fill="#F1E9D6" stroke="#0A0A0A" stroke-width="1.4" stroke-linejoin="round"/><polygon points="323.38,172.50 338.97,181.50 338.97,199.50 323.38,190.50" fill="#C9BFA6" stroke="#0A0A0A" stroke-width="1.4" stroke-linejoin="round"/><polygon points="354.56,172.50 338.97,181.50 338.97,199.50 354.56,190.50" fill="#6B6B6B" stroke="#0A0A0A" stroke-width="1.4" stroke-linejoin="round"/><polygon points="354.56,172.50 370.15,181.50 354.56,190.50 338.97,181.50" fill="#F1E9D6" stroke="#0A0A0A" stroke-width="1.4" stroke-linejoin="round"/><polygon points="338.97,181.50 354.56,190.50 354.56,208.50 338.97,199.50" fill="#C9BFA6" stroke="#0A0A0A" stroke-width="1.4" stroke-linejoin="round"/><polygon points="370.15,181.50 354.56,190.50 354.56,208.50 370.15,199.50" fill="#6B6B6B" stroke="#0A0A0A" stroke-width="1.4" stroke-linejoin="round"/><polygon points="370.15,181.50 385.74,190.50 370.15,199.50 354.56,190.50" fill="#F1E9D6" stroke="#0A0A0A" stroke-width="1.4" stroke-linejoin="round"/><polygon points="354.56,190.50 370.15,199.50 370.15,217.50 354.56,208.50" fill="#C9BFA6" stroke="#0A0A0A" stroke-width="1.4" stroke-linejoin="round"/><polygon points="385.74,190.50 370.15,199.50 370.15,217.50 385.74,208.50" fill="#6B6B6B" stroke="#0A0A0A" stroke-width="1.4" stroke-linejoin="round"/><polygon points="385.74,190.50 401.32,199.50 385.74,208.50 370.15,199.50" fill="#F1E9D6" stroke="#0A0A0A" stroke-width="1.4" stroke-linejoin="round"/><polygon points="370.15,199.50 385.74,208.50 385.74,226.50 370.15,217.50" fill="#C9BFA6" stroke="#0A0A0A" stroke-width="1.4" stroke-linejoin="round"/><polygon points="401.32,199.50 385.74,208.50 385.74,226.50 401.32,217.50" fill="#6B6B6B" stroke="#0A0A0A" stroke-width="1.4" stroke-linejoin="round"/><polygon points="300.00,132.00 315.59,141.00 300.00,150.00 284.41,141.00" fill="#FFD960" stroke="#0A0A0A" stroke-width="1.4" stroke-linejoin="round"/><polygon points="284.41,141.00 300.00,150.00 300.00,159.00 284.41,150.00" fill="#FFC72C" stroke="#0A0A0A" stroke-width="1.4" stroke-linejoin="round"/><polygon points="315.59,141.00 300.00,150.00 300.00,159.00 315.59,150.00" fill="#D89A14" stroke="#0A0A0A" stroke-width="1.4" stroke-linejoin="round"/><polygon points="315.59,141.00 331.18,150.00 315.59,159.00 300.00,150.00" fill="#FFD960" stroke="#0A0A0A" stroke-width="1.4" stroke-linejoin="round"/><polygon points="300.00,150.00 315.59,159.00 315.59,168.00 300.00,159.00" fill="#FFC72C" stroke="#0A0A0A" stroke-width="1.4" stroke-linejoin="round"/><polygon points="331.18,150.00 315.59,159.00 315.59,168.00 331.18,159.00" fill="#D89A14" stroke="#0A0A0A" stroke-width="1.4" stroke-linejoin="round"/><polygon points="331.18,150.00 346.77,159.00 331.18,168.00 315.59,159.00" fill="#FFD960" stroke="#0A0A0A" stroke-width="1.4" stroke-linejoin="round"/><polygon points="315.59,159.00 331.18,168.00 331.18,177.00 315.59,168.00" fill="#FFC72C" stroke="#0A0A0A" stroke-width="1.4" stroke-linejoin="round"/><polygon points="346.77,159.00 331.18,168.00 331.18,177.00 346.77,168.00" fill="#D89A14" stroke="#0A0A0A" stroke-width="1.4" stroke-linejoin="round"/><polygon points="346.77,159.00 362.35,168.00 346.77,177.00 331.18,168.00" fill="#FFD960" stroke="#0A0A0A" stroke-width="1.4" stroke-linejoin="round"/><polygon points="331.18,168.00 346.77,177.00 346.77,186.00 331.18,177.00" fill="#FFC72C" stroke="#0A0A0A" stroke-width="1.4" stroke-linejoin="round"/><polygon points="362.35,168.00 346.77,177.00 346.77,186.00 362.35,177.00" fill="#D89A14" stroke="#0A0A0A" stroke-width="1.4" stroke-linejoin="round"/><polygon points="362.35,168.00 377.94,177.00 362.35,186.00 346.77,177.00" fill="#FFD960" stroke="#0A0A0A" stroke-width="1.4" stroke-linejoin="round"/><polygon points="346.77,177.00 362.35,186.00 362.35,195.00 346.77,186.00" fill="#FFC72C" stroke="#0A0A0A" stroke-width="1.4" stroke-linejoin="round"/><polygon points="377.94,177.00 362.35,186.00 362.35,195.00 377.94,186.00" fill="#D89A14" stroke="#0A0A0A" stroke-width="1.4" stroke-linejoin="round"/><polygon points="377.94,177.00 393.53,186.00 377.94,195.00 362.35,186.00" fill="#FFD960" stroke="#0A0A0A" stroke-width="1.4" stroke-linejoin="round"/><polygon points="362.35,186.00 377.94,195.00 377.94,204.00 362.35,195.00" fill="#FFC72C" stroke="#0A0A0A" stroke-width="1.4" stroke-linejoin="round"/><polygon points="393.53,186.00 377.94,195.00 377.94,204.00 393.53,195.00" fill="#D89A14" stroke="#0A0A0A" stroke-width="1.4" stroke-linejoin="round"/><polygon points="393.53,186.00 409.12,195.00 393.53,204.00 377.94,195.00" fill="#FFD960" stroke="#0A0A0A" stroke-width="1.4" stroke-linejoin="round"/><polygon points="377.94,195.00 393.53,204.00 393.53,213.00 377.94,204.00" fill="#FFC72C" stroke="#0A0A0A" stroke-width="1.4" stroke-linejoin="round"/><polygon points="409.12,195.00 393.53,204.00 393.53,213.00 409.12,204.00" fill="#D89A14" stroke="#0A0A0A" stroke-width="1.4" stroke-linejoin="round"/>
  <g transform="translate(170 250) scale(1.7)">
    <ellipse cx="0" cy="6" rx="44" ry="12" fill="#D89A14" stroke="#0A0A0A" stroke-width="1.6"/>
    <path d="M -32 4 Q -32 -26 0 -28 Q 32 -26 32 4 Z" fill="#FFC72C" stroke="#0A0A0A" stroke-width="1.6" stroke-linejoin="round"/>
    <path d="M -22 0 Q -22 -20 0 -22 Q 6 -22 12 -18" fill="none" stroke="#FFD960" stroke-width="3" stroke-linecap="round" opacity="0.9"/>
    <path d="M 0 -28 L 0 4" stroke="#D89A14" stroke-width="1.8" opacity="0.7"/>
    <path d="M -40 5 Q 0 18 40 5" fill="none" stroke="#0A0A0A" stroke-width="1.6"/>
    <rect x="-9" y="-16" width="18" height="9" rx="2" fill="#0A0A0A"/>
    <text x="0" y="-9" text-anchor="middle" font-family="Inter, system-ui, sans-serif" font-size="7" font-weight="800" fill="#FFC72C">TM</text>
  </g>
  <g transform="translate(450 220) scale(1.5)">
    <rect x="-30" y="-38" width="60" height="76" rx="5" fill="#4A4A4A" stroke="#0A0A0A" stroke-width="1.6"/>
    <rect x="-26" y="-30" width="52" height="68" rx="3" fill="#F1E9D6" stroke="#0A0A0A" stroke-width="1.4"/>
    <rect x="-12" y="-42" width="24" height="10" rx="3" fill="#FFC72C" stroke="#0A0A0A" stroke-width="1.6"/>
    <rect x="-7" y="-46" width="14" height="6" rx="2" fill="#6B6B6B" stroke="#0A0A0A" stroke-width="1.2"/>
    <line x1="-20" y1="-18" x2="20" y2="-18" stroke="#6B6B6B" stroke-width="1.6" stroke-linecap="round"/>
    <line x1="-20" y1="-8" x2="14" y2="-8" stroke="#6B6B6B" stroke-width="1.6" stroke-linecap="round"/>
    <line x1="-20" y1="2" x2="18" y2="2" stroke="#6B6B6B" stroke-width="1.6" stroke-linecap="round"/>
    <path d="M -18 18 l 6 6 l 14 -14" stroke="#C8472D" stroke-width="3" stroke-linecap="round" stroke-linejoin="round" fill="none"/>
  </g>
      <g transform="translate(40 36)">
        <rect width="148" height="34" rx="6" fill="#FFC72C" stroke="#0A0A0A" stroke-width="2"/>
        <text x="74" y="23" text-anchor="middle" font-family="Inter, system-ui, sans-serif"
              font-size="16" font-weight="900" fill="#0A0A0A" letter-spacing="2">SAFETY FIRST</text>
      </g></svg>
