<svg xmlns="http://www.w3.org/2000/svg" viewBox="0 0 200 200" fill="none">
<defs>
  <filter id="softblur" x="-20%" y="-20%" width="140%" height="140%">
    <feGaussianBlur stdDeviation="2.4"/>
  </filter>
  <linearGradient id="bgGrad" x1="0" y1="0" x2="0" y2="1">
    <stop offset="0" stop-color="#1F1F26"/>
    <stop offset="1" stop-color="#0A0A0A"/>
  </linearGradient>
  <radialGradient id="appBg" cx="0.3" cy="0.25" r="0.9">
    <stop offset="0" stop-color="#1d1d23"/>
    <stop offset="1" stop-color="#050505"/>
  </radialGradient>
  
</defs>
<ellipse cx="100" cy="172" rx="82" ry="14" fill="#000" opacity="0.35" filter="url(#softblur)"/><polygon points="93.76,98.32 149.88,130.72 140.53,136.12 84.41,103.72" fill="#8E8E8E" stroke="#0A0A0A" stroke-width="1.4" stroke-linejoin="round"/><polygon points="84.41,103.72 140.53,136.12 140.53,139.00 84.41,106.60" fill="#6B6B6B" stroke="#0A0A0A" stroke-width="1.4" stroke-linejoin="round"/><polygon points="149.88,130.72 140.53,136.12 140.53,139.00 149.88,133.60" fill="#4A4A4A" stroke="#0A0A0A" stroke-width="1.4" stroke-linejoin="round"/><polygon points="75.06,109.12 131.18,141.52 121.82,146.92 65.71,114.52" fill="#8E8E8E" stroke="#0A0A0A" stroke-width="1.4" stroke-linejoin="round"/><polygon points="65.71,114.52 121.82,146.92 121.82,149.80 65.71,117.40" fill="#6B6B6B" stroke="#0A0A0A" stroke-width="1.4" stroke-linejoin="round"/><polygon points="131.18,141.52 121.82,146.92 121.82,149.80 131.18,144.40" fill="#4A4A4A" stroke="#0A0A0A" stroke-width="1.4" stroke-linejoin="round"/><polygon points="56.35,119.92 112.47,152.32 103.12,157.72 47.00,125.32" fill="#8E8E8E" stroke="#0A0A0A" stroke-width="1.4" stroke-linejoin="round"/><polygon points="47.00,125.32 103.12,157.72 103.12,160.60 47.00,128.20" fill="#6B6B6B" stroke="#0A0A0A" stroke-width="1.4" stroke-linejoin="round"/><polygon points="112.47,152.32 103.12,157.72 103.12,160.60 112.47,155.20" fill="#4A4A4A" stroke="#0A0A0A" stroke-width="1.4" stroke-linejoin="round"/><polygon points="96.88,101.20 102.34,104.35 55.57,131.35 50.12,128.20" fill="#8E8E8E" stroke="#0A0A0A" stroke-width="1.4" stroke-linejoin="round"/><polygon points="50.12,128.20 55.57,131.35 55.57,133.15 50.12,130.00" fill="#6B6B6B" stroke="#0A0A0A" stroke-width="1.4" stroke-linejoin="round"/><polygon points="102.34,104.35 55.57,131.35 55.57,133.15 102.34,106.15" fill="#4A4A4A" stroke="#0A0A0A" stroke-width="1.4" stroke-linejoin="round"/><polygon points="115.59,112.00 121.04,115.15 74.28,142.15 68.82,139.00" fill="#8E8E8E" stroke="#0A0A0A" stroke-width="1.4" stroke-linejoin="round"/><polygon points="68.82,139.00 74.28,142.15 74.28,143.95 68.82,140.80" fill="#6B6B6B" stroke="#0A0A0A" stroke-width="1.4" stroke-linejoin="round"/><polygon points="121.04,115.15 74.28,142.15 74.28,143.95 121.04,116.95" fill="#4A4A4A" stroke="#0A0A0A" stroke-width="1.4" stroke-linejoin="round"/><polygon points="134.29,122.80 139.75,125.95 92.99,152.95 87.53,149.80" fill="#8E8E8E" stroke="#0A0A0A" stroke-width="1.4" stroke-linejoin="round"/><polygon points="87.53,149.80 92.99,152.95 92.99,154.75 87.53,151.60" fill="#6B6B6B" stroke="#0A0A0A" stroke-width="1.4" stroke-linejoin="round"/><polygon points="139.75,125.95 92.99,152.95 92.99,154.75 139.75,127.75" fill="#4A4A4A" stroke="#0A0A0A" stroke-width="1.4" stroke-linejoin="round"/><polygon points="93.76,93.82 109.35,102.82 95.32,110.92 79.74,101.92" fill="#F1E9D6" stroke="#0A0A0A" stroke-width="1.4" stroke-linejoin="round"/><polygon points="79.74,101.92 95.32,110.92 95.32,120.82 79.74,111.82" fill="#C9BFA6" stroke="#0A0A0A" stroke-width="1.4" stroke-linejoin="round"/><polygon points="109.35,102.82 95.32,110.92 95.32,120.82 109.35,112.72" fill="#6B6B6B" stroke="#0A0A0A" stroke-width="1.4" stroke-linejoin="round"/><polygon points="110.91,103.72 126.50,112.72 112.47,120.82 96.88,111.82" fill="#F1E9D6" stroke="#0A0A0A" stroke-width="1.4" stroke-linejoin="round"/><polygon points="96.88,111.82 112.47,120.82 112.47,130.72 96.88,121.72" fill="#C9BFA6" stroke="#0A0A0A" stroke-width="1.4" stroke-linejoin="round"/><polygon points="126.50,112.72 112.47,120.82 112.47,130.72 126.50,122.62" fill="#6B6B6B" stroke="#0A0A0A" stroke-width="1.4" stroke-linejoin="round"/><polygon points="128.06,113.62 143.65,122.62 129.62,130.72 114.03,121.72" fill="#F1E9D6" stroke="#0A0A0A" stroke-width="1.4" stroke-linejoin="round"/><polygon points="114.03,121.72 129.62,130.72 129.62,140.62 114.03,131.62" fill="#C9BFA6" stroke="#0A0A0A" stroke-width="1.4" stroke-linejoin="round"/><polygon points="143.65,122.62 129.62,130.72 129.62,140.62 143.65,132.52" fill="#6B6B6B" stroke="#0A0A0A" stroke-width="1.4" stroke-linejoin="round"/><polygon points="76.62,103.72 92.21,112.72 78.18,120.82 62.59,111.82" fill="#F1E9D6" stroke="#0A0A0A" stroke-width="1.4" stroke-linejoin="round"/><polygon points="62.59,111.82 78.18,120.82 78.18,130.72 62.59,121.72" fill="#C9BFA6" stroke="#0A0A0A" stroke-width="1.4" stroke-linejoin="round"/><polygon points="92.21,112.72 78.18,120.82 78.18,130.72 92.21,122.62" fill="#6B6B6B" stroke="#0A0A0A" stroke-width="1.4" stroke-linejoin="round"/><polygon points="93.76,113.62 109.35,122.62 95.32,130.72 79.74,121.72" fill="#F1E9D6" stroke="#0A0A0A" stroke-width="1.4" stroke-linejoin="round"/><polygon points="79.74,121.72 95.32,130.72 95.32,140.62 79.74,131.62" fill="#C9BFA6" stroke="#0A0A0A" stroke-width="1.4" stroke-linejoin="round"/><polygon points="109.35,122.62 95.32,130.72 95.32,140.62 109.35,132.52" fill="#6B6B6B" stroke="#0A0A0A" stroke-width="1.4" stroke-linejoin="round"/><polygon points="110.91,123.52 126.50,132.52 112.47,140.62 96.88,131.62" fill="#F1E9D6" stroke="#0A0A0A" stroke-width="1.4" stroke-linejoin="round"/><polygon points="96.88,131.62 112.47,140.62 112.47,150.52 96.88,141.52" fill="#C9BFA6" stroke="#0A0A0A" stroke-width="1.4" stroke-linejoin="round"/><polygon points="126.50,132.52 112.47,140.62 112.47,150.52 126.50,142.42" fill="#6B6B6B" stroke="#0A0A0A" stroke-width="1.4" stroke-linejoin="round"/><polygon points="94.54,94.27 110.13,103.27 96.10,111.37 80.51,102.37" fill="#E36546" stroke="#0A0A0A" stroke-width="1.4" stroke-linejoin="round"/><polygon points="80.51,102.37 96.10,111.37 96.10,120.37 80.51,111.37" fill="#C8472D" stroke="#0A0A0A" stroke-width="1.4" stroke-linejoin="round"/><polygon points="110.13,103.27 96.10,111.37 96.10,120.37 110.13,112.27" fill="#8E2F1D" stroke="#0A0A0A" stroke-width="1.4" stroke-linejoin="round"/><polygon points="111.69,104.17 127.28,113.17 113.25,121.27 97.66,112.27" fill="#E36546" stroke="#0A0A0A" stroke-width="1.4" stroke-linejoin="round"/><polygon points="97.66,112.27 113.25,121.27 113.25,130.27 97.66,121.27" fill="#C8472D" stroke="#0A0A0A" stroke-width="1.4" stroke-linejoin="round"/><polygon points="127.28,113.17 113.25,121.27 113.25,130.27 127.28,122.17" fill="#8E2F1D" stroke="#0A0A0A" stroke-width="1.4" stroke-linejoin="round"/><path d="M 75.8 86.9 L 133.5 120.2" stroke="#FFC72C" stroke-width="5.5" stroke-linecap="round"/><path d="M 133.5 120.2 L 133.5 140.7" stroke="#D89A14" stroke-width="5.5" stroke-linecap="round"/><rect x="98.7" y="100.5" width="12" height="6" rx="1.5" fill="#0A0A0A"/></svg>
