<svg xmlns="http://www.w3.org/2000/svg" viewBox="0 0 200 200" fill="none">
<defs>
  <filter id="softblur" x="-20%" y="-20%" width="140%" height="140%">
    <feGaussianBlur stdDeviation="2.4"/>
  </filter>
  <linearGradient id="bgGrad" x1="0" y1="0" x2="0" y2="1">
    <stop offset="0" stop-color="#1F1F26"/>
    <stop offset="1" stop-color="#0A0A0A"/>
  </linearGradient>
  <radialGradient id="appBg" cx="0.3" cy="0.25" r="0.9">
    <stop offset="0" stop-color="#1d1d23"/>
    <stop offset="1" stop-color="#050505"/>
  </radialGradient>
  
</defs>
<ellipse cx="100" cy="168" rx="70" ry="14" fill="#000" opacity="0.35" filter="url(#softblur)"/>
    <g transform="translate(70 110) rotate(-8)">
      <rect x="-46" y="-30" width="92" height="64" rx="3" fill="#2E6BB0" stroke="#0A0A0A" stroke-width="1.8"/>
      <g stroke="#7BB1E8" stroke-width="1" opacity="0.7">
        <line x1="-40" y1="-22" x2="40" y2="-22"/>
        <line x1="-40" y1="-12" x2="40" y2="-12"/>
        <line x1="-40" y1="-2"  x2="40" y2="-2"/>
        <line x1="-40" y1="8"   x2="40" y2="8"/>
        <line x1="-40" y1="18"  x2="40" y2="18"/>
        <line x1="-30" y1="-26" x2="-30" y2="30"/>
        <line x1="-10" y1="-26" x2="-10" y2="30"/>
        <line x1="10"  y1="-26" x2="10"  y2="30"/>
        <line x1="30"  y1="-26" x2="30"  y2="30"/>
      </g>
      <path d="M -28 -8 H 8 V -20 H 32 V 22 H -28 Z" fill="none" stroke="#E9F3FF" stroke-width="2.2" stroke-linejoin="round"/>
      <path d="M -10 -8 V 22" stroke="#E9F3FF" stroke-width="2.2"/>
    </g>
    <g transform="translate(138 96) rotate(20)">
      <rect x="-12" y="-44" width="24" height="78" rx="6" fill="#2E6BB0" stroke="#0A0A0A" stroke-width="1.8"/>
      <ellipse cx="0" cy="-44" rx="12" ry="5" fill="#3B7FCC" stroke="#0A0A0A" stroke-width="1.4"/>
      <ellipse cx="0" cy="-44" rx="6" ry="2.4" fill="#0A0A0A" opacity="0.5"/>
      <rect x="-13" y="6" width="26" height="4" fill="#FFC72C" stroke="#0A0A0A" stroke-width="1.2"/>
    </g></svg>
