<svg xmlns="http://www.w3.org/2000/svg" viewBox="0 0 200 200" fill="none">
<defs>
  <filter id="softblur" x="-20%" y="-20%" width="140%" height="140%">
    <feGaussianBlur stdDeviation="2.4"/>
  </filter>
  <linearGradient id="bgGrad" x1="0" y1="0" x2="0" y2="1">
    <stop offset="0" stop-color="#1F1F26"/>
    <stop offset="1" stop-color="#0A0A0A"/>
  </linearGradient>
  <radialGradient id="appBg" cx="0.3" cy="0.25" r="0.9">
    <stop offset="0" stop-color="#1d1d23"/>
    <stop offset="1" stop-color="#050505"/>
  </radialGradient>
  
</defs>
<ellipse cx="100" cy="168" rx="70" ry="14" fill="#000" opacity="0.35" filter="url(#softblur)"/>
  <g transform="translate(82 118) scale(1.05)">
    <ellipse cx="0" cy="6" rx="44" ry="12" fill="#D89A14" stroke="#0A0A0A" stroke-width="1.6"/>
    <path d="M -32 4 Q -32 -26 0 -28 Q 32 -26 32 4 Z" fill="#FFC72C" stroke="#0A0A0A" stroke-width="1.6" stroke-linejoin="round"/>
    <path d="M -22 0 Q -22 -20 0 -22 Q 6 -22 12 -18" fill="none" stroke="#FFD960" stroke-width="3" stroke-linecap="round" opacity="0.9"/>
    <path d="M 0 -28 L 0 4" stroke="#D89A14" stroke-width="1.8" opacity="0.7"/>
    <path d="M -40 5 Q 0 18 40 5" fill="none" stroke="#0A0A0A" stroke-width="1.6"/>
    <rect x="-9" y="-16" width="18" height="9" rx="2" fill="#0A0A0A"/>
    <text x="0" y="-9" text-anchor="middle" font-family="Inter, system-ui, sans-serif" font-size="7" font-weight="800" fill="#FFC72C">TM</text>
  </g>
    <g transform="translate(132 82)">
      <circle cx="0" cy="0" r="26" fill="#1F1F26" stroke="#0A0A0A" stroke-width="2.2"/>
      <circle cx="0" cy="0" r="22" fill="none" stroke="#FFC72C" stroke-width="3"/>
      <circle cx="-6" cy="-6" r="10" fill="#ffffff" opacity="0.10"/>
      <rect x="18" y="18" width="26" height="10" rx="5" fill="#4A4A4A" stroke="#0A0A0A" stroke-width="2" transform="rotate(45 18 18)"/>
    </g></svg>
