<svg xmlns="http://www.w3.org/2000/svg" viewBox="0 0 200 200" fill="none">
<defs>
  <filter id="softblur" x="-20%" y="-20%" width="140%" height="140%">
    <feGaussianBlur stdDeviation="2.4"/>
  </filter>
  <linearGradient id="bgGrad" x1="0" y1="0" x2="0" y2="1">
    <stop offset="0" stop-color="#1F1F26"/>
    <stop offset="1" stop-color="#0A0A0A"/>
  </linearGradient>
  <radialGradient id="appBg" cx="0.3" cy="0.25" r="0.9">
    <stop offset="0" stop-color="#1d1d23"/>
    <stop offset="1" stop-color="#050505"/>
  </radialGradient>
  
</defs>
<ellipse cx="100" cy="168" rx="70" ry="14" fill="#000" opacity="0.35" filter="url(#softblur)"/>
  <g transform="translate(100 110) scale(1.25)">
    <rect x="-30" y="-38" width="60" height="76" rx="5" fill="#4A4A4A" stroke="#0A0A0A" stroke-width="1.6"/>
    <rect x="-26" y="-30" width="52" height="68" rx="3" fill="#F1E9D6" stroke="#0A0A0A" stroke-width="1.4"/>
    <rect x="-12" y="-42" width="24" height="10" rx="3" fill="#FFC72C" stroke="#0A0A0A" stroke-width="1.6"/>
    <rect x="-7" y="-46" width="14" height="6" rx="2" fill="#6B6B6B" stroke="#0A0A0A" stroke-width="1.2"/>
    <line x1="-20" y1="-18" x2="20" y2="-18" stroke="#6B6B6B" stroke-width="1.6" stroke-linecap="round"/>
    <line x1="-20" y1="-8" x2="14" y2="-8" stroke="#6B6B6B" stroke-width="1.6" stroke-linecap="round"/>
    <line x1="-20" y1="2" x2="18" y2="2" stroke="#6B6B6B" stroke-width="1.6" stroke-linecap="round"/>
    <path d="M -18 18 l 6 6 l 14 -14" stroke="#C8472D" stroke-width="3" stroke-linecap="round" stroke-linejoin="round" fill="none"/>
  </g>
    <g transform="translate(150 60) rotate(35)">
      <rect x="-3" y="-30" width="6" height="42" fill="#FFC72C" stroke="#0A0A0A" stroke-width="1.4"/>
      <polygon points="-3,12 3,12 0,20" fill="#F1E9D6" stroke="#0A0A0A" stroke-width="1.4"/>
      <polygon points="-1.3,17.4 1.3,17.4 0,20" fill="#0A0A0A"/>
      <rect x="-3" y="-30" width="6" height="6" fill="#C8472D" stroke="#0A0A0A" stroke-width="1.4"/>
    </g></svg>
