<svg xmlns="http://www.w3.org/2000/svg" viewBox="0 0 200 200" fill="none">
<defs>
  <filter id="softblur" x="-20%" y="-20%" width="140%" height="140%">
    <feGaussianBlur stdDeviation="2.4"/>
  </filter>
  <linearGradient id="bgGrad" x1="0" y1="0" x2="0" y2="1">
    <stop offset="0" stop-color="#1F1F26"/>
    <stop offset="1" stop-color="#0A0A0A"/>
  </linearGradient>
  <radialGradient id="appBg" cx="0.3" cy="0.25" r="0.9">
    <stop offset="0" stop-color="#1d1d23"/>
    <stop offset="1" stop-color="#050505"/>
  </radialGradient>
  
</defs>
<ellipse cx="100" cy="168" rx="78" ry="14" fill="#000" opacity="0.35" filter="url(#softblur)"/>
    <g>
      <rect x="22" y="138" width="156" height="14" rx="3" fill="#6B6B6B" stroke="#0A0A0A" stroke-width="1.6"/>
      <rect x="22" y="138" width="156" height="5" rx="2" fill="#8E8E8E"/>
      <rect x="30" y="152" width="6" height="20" fill="#4A4A4A" stroke="#0A0A0A" stroke-width="1.4"/>
      <rect x="164" y="152" width="6" height="20" fill="#4A4A4A" stroke="#0A0A0A" stroke-width="1.4"/>
    </g>
  <g transform="translate(60 124) scale(0.68)">
    <ellipse cx="0" cy="6" rx="44" ry="12" fill="#D89A14" stroke="#0A0A0A" stroke-width="1.6"/>
    <path d="M -32 4 Q -32 -26 0 -28 Q 32 -26 32 4 Z" fill="#FFC72C" stroke="#0A0A0A" stroke-width="1.6" stroke-linejoin="round"/>
    <path d="M -22 0 Q -22 -20 0 -22 Q 6 -22 12 -18" fill="none" stroke="#FFD960" stroke-width="3" stroke-linecap="round" opacity="0.9"/>
    <path d="M 0 -28 L 0 4" stroke="#D89A14" stroke-width="1.8" opacity="0.7"/>
    <path d="M -40 5 Q 0 18 40 5" fill="none" stroke="#0A0A0A" stroke-width="1.6"/>
    <rect x="-9" y="-16" width="18" height="9" rx="2" fill="#0A0A0A"/>
    <text x="0" y="-9" text-anchor="middle" font-family="Inter, system-ui, sans-serif" font-size="7" font-weight="800" fill="#FFC72C">TM</text>
  </g>
  <g transform="translate(100 120) scale(0.78)">
    <ellipse cx="0" cy="6" rx="44" ry="12" fill="#8E2F1D" stroke="#0A0A0A" stroke-width="1.6"/>
    <path d="M -32 4 Q -32 -26 0 -28 Q 32 -26 32 4 Z" fill="#C8472D" stroke="#0A0A0A" stroke-width="1.6" stroke-linejoin="round"/>
    <path d="M -22 0 Q -22 -20 0 -22 Q 6 -22 12 -18" fill="none" stroke="#E36546" stroke-width="3" stroke-linecap="round" opacity="0.9"/>
    <path d="M 0 -28 L 0 4" stroke="#8E2F1D" stroke-width="1.8" opacity="0.7"/>
    <path d="M -40 5 Q 0 18 40 5" fill="none" stroke="#0A0A0A" stroke-width="1.6"/>
    <rect x="-9" y="-16" width="18" height="9" rx="2" fill="#0A0A0A"/>
    <text x="0" y="-9" text-anchor="middle" font-family="Inter, system-ui, sans-serif" font-size="7" font-weight="800" fill="#C8472D">TM</text>
  </g>
  <g transform="translate(140 124) scale(0.68)">
    <ellipse cx="0" cy="6" rx="44" ry="12" fill="#D89A14" stroke="#0A0A0A" stroke-width="1.6"/>
    <path d="M -32 4 Q -32 -26 0 -28 Q 32 -26 32 4 Z" fill="#FFC72C" stroke="#0A0A0A" stroke-width="1.6" stroke-linejoin="round"/>
    <path d="M -22 0 Q -22 -20 0 -22 Q 6 -22 12 -18" fill="none" stroke="#FFD960" stroke-width="3" stroke-linecap="round" opacity="0.9"/>
    <path d="M 0 -28 L 0 4" stroke="#D89A14" stroke-width="1.8" opacity="0.7"/>
    <path d="M -40 5 Q 0 18 40 5" fill="none" stroke="#0A0A0A" stroke-width="1.6"/>
    <rect x="-9" y="-16" width="18" height="9" rx="2" fill="#0A0A0A"/>
    <text x="0" y="-9" text-anchor="middle" font-family="Inter, system-ui, sans-serif" font-size="7" font-weight="800" fill="#FFC72C">TM</text>
  </g>
    <g transform="translate(120 36)">
      <path d="M 0 0 q 0 -22 24 -22 h 18 q 24 0 24 22 v 10 q 0 22 -24 22 h -10 l -10 10 l 2 -10 q -24 0 -24 -22 z"
            fill="#FFC72C" stroke="#0A0A0A" stroke-width="1.8" stroke-linejoin="round"/>
      <circle cx="20" cy="6" r="3" fill="#0A0A0A"/>
      <circle cx="33" cy="6" r="3" fill="#0A0A0A"/>
      <circle cx="46" cy="6" r="3" fill="#0A0A0A"/>
    </g></svg>
