<svg xmlns="http://www.w3.org/2000/svg" viewBox="0 0 200 200" fill="none">
<defs>
  <filter id="softblur" x="-20%" y="-20%" width="140%" height="140%">
    <feGaussianBlur stdDeviation="2.4"/>
  </filter>
  <linearGradient id="bgGrad" x1="0" y1="0" x2="0" y2="1">
    <stop offset="0" stop-color="#1F1F26"/>
    <stop offset="1" stop-color="#0A0A0A"/>
  </linearGradient>
  <radialGradient id="appBg" cx="0.3" cy="0.25" r="0.9">
    <stop offset="0" stop-color="#1d1d23"/>
    <stop offset="1" stop-color="#050505"/>
  </radialGradient>
  
</defs>
<ellipse cx="100" cy="168" rx="60" ry="14" fill="#000" opacity="0.35" filter="url(#softblur)"/>
    <g transform="translate(100 112)">
      <rect x="-10" y="-72" width="20" height="8" rx="2" fill="#6B6B6B" stroke="#0A0A0A" stroke-width="1.6"/>
      <rect x="-4" y="-78" width="8" height="6" rx="1.5" fill="#FFC72C" stroke="#0A0A0A" stroke-width="1.4"/>
      <circle cx="0" cy="0" r="54" fill="#1F1F26" stroke="#0A0A0A" stroke-width="2.4"/>
      <circle cx="0" cy="0" r="48" fill="#F1E9D6" stroke="#0A0A0A" stroke-width="1.6"/>
      <circle cx="0" cy="0" r="48" fill="none" stroke="#FFC72C" stroke-width="6"
              stroke-dasharray="226 200" stroke-dashoffset="60" transform="rotate(-90)"/>
      <g stroke="#0A0A0A" stroke-width="2" stroke-linecap="round">
        <line x1="0" y1="-44" x2="0" y2="-36"/>
        <line x1="0" y1="44"  x2="0" y2="36"/>
        <line x1="-44" y1="0" x2="-36" y2="0"/>
        <line x1="44"  y1="0" x2="36"  y2="0"/>
      </g>
      <line x1="0" y1="0" x2="0" y2="-30" stroke="#0A0A0A" stroke-width="3" stroke-linecap="round"/>
      <line x1="0" y1="0" x2="22" y2="6" stroke="#C8472D" stroke-width="3" stroke-linecap="round"/>
      <circle cx="0" cy="0" r="4" fill="#0A0A0A"/>
      <rect x="-48" y="-44" width="6" height="6" rx="1.5" fill="#6B6B6B" stroke="#0A0A0A" stroke-width="1.4" transform="rotate(-30 -45 -41)"/>
      <rect x="42" y="-44" width="6" height="6" rx="1.5" fill="#6B6B6B" stroke="#0A0A0A" stroke-width="1.4" transform="rotate(30 45 -41)"/>
    </g></svg>
